<?xml version="1.0" encoding="utf-8"?>
<!-- Generator: Adobe Illustrator 16.0.0, SVG Export Plug-In . SVG Version: 6.00 Build 0)  -->
<!DOCTYPE svg PUBLIC "-//W3C//DTD SVG 1.1//EN" "http://www.w3.org/Graphics/SVG/1.1/DTD/svg11.dtd">
<svg version="1.1" id="Layer_1" xmlns="http://www.w3.org/2000/svg" xmlns:xlink="http://www.w3.org/1999/xlink" x="0px" y="0px"
	 width="143px" height="143px" viewBox="184.5 0 143 143" enable-background="new 184.5 0 143 143" xml:space="preserve">
<path fill="#999999" d="M327.5,143c0,0,0-9.831-0.819-14.971c-0.67-4.059-6.293-9.421-30.201-18.21
	c-23.536-8.64-22.083-4.432-22.083-20.333c0-10.315,5.25-4.319,8.602-23.907c1.305-7.709,2.347-2.57,5.178-14.933
	c1.489-6.48-1.006-6.964-0.709-10.055c0.299-3.091,0.596-5.847,1.155-12.178C289.292,20.593,282.031,0,256,0
	c-26.03,0-33.292,20.593-32.584,28.451c0.559,6.293,0.856,9.086,1.154,12.177s-2.197,3.575-0.708,10.055
	c2.83,12.326,3.873,7.187,5.176,14.933c3.352,19.588,8.603,13.593,8.603,23.908c0,15.938,1.452,11.73-22.083,20.332
	c-23.908,8.752-29.568,14.151-30.201,18.211C184.5,133.169,184.5,143,184.5,143H256H327.5z"/>
</svg>
